# xmcd
#
# Track frame offsets: 
#        150
#        14972
#        29332
#        45460
#        58780
#        71575
#        83242
#        97417
#        111187
#        123630
#        135457
#        148842
#        162272
#        175270
#        189232
#        202240
#        217270
#        230737
#        243070
#        255980
#        269027
#        281822
#        295020
#        307887
#        316810
#
# Disc length: 4445 seconds
#
# Revision: 2
# Processed by: cddbd v1.5.2PL0 Copyright (c) Steve Scherf et al.
# Submitted via: ExactAudioCopyFreeDBPlugin 1.0
#
DISCID=88115b19
DTITLE=Various Artist - Piano Blues Vol. 2 (1927-1956)
DYEAR=1993
DGENRE=
TTITLE0=L. C. Prigett - Sure as You Take a Woman from Somebody Else
TTITLE1=L. C. Prigett - When I Say Ta-Ta, It Means Good-Bye
TTITLE2=L. C. Prigett - Frogtown Blues
TTITLE3=Willie Jones - Willie's Weary Blues
TTITLE4=Willie Jones - Blue Buddies Blues
TTITLE5=unknown - Throw Me Down
TTITLE6=Jesse Clayton - Station House Blues
TTITLE7=Jesse Clayton - Neckbone Blues
TTITLE8=Barrelhouse Buck McFarland - St. Louis Fire Blues
TTITLE9=Barrelhouse Buck McFarland - On Your Way
TTITLE10=Barrelhouse Buck McFarland - I Got to Go Blues
TTITLE11=Barrelhouse Buck McFarland - Lamp Post Blues
TTITLE12=Barrelhouse Buck McFarland - Mercy Mercy Blues
TTITLE13=Barrelhouse Buck McFarland - Mean to Mean
TTITLE14=Barrelhouse Buck McFarland - Weeping Willow Blues
TTITLE15=Charlie Segar - Cuban Villa Blues
TTITLE16=Charlie Segar - Southern Hospitality
TTITLE17=Charlie Segar - Cow Cow Blues
TTITLE18=Charlie Segar - Boogie Woogie
TTITLE19=Charlie Segar - Key to the Highway
TTITLE20=Charlie Segar - Stop and Fix It Mama
TTITLE21=Charlie Segar - Lonesome Graveyard Blues
TTITLE22=Charlie Segar - Dissatisfied Blues
TTITLE23=Doug Suggs - Doug's Jump
TTITLE24=Doug Suggs - Sweet Patootie
EXTD=
EXTT0=
EXTT1=
EXTT2=
EXTT3=
EXTT4=
EXTT5=
EXTT6=
EXTT7=
EXTT8=
EXTT9=
EXTT10=
EXTT11=
EXTT12=
EXTT13=
EXTT14=
EXTT15=
EXTT16=
EXTT17=
EXTT18=
EXTT19=
EXTT20=
EXTT21=
EXTT22=
EXTT23=
EXTT24=
PLAYORDER=
